<mxfile host="app.diagrams.net" modified="2024-01-18T08:10:12.717Z" agent="Mozilla/5.0 (Macintosh; Intel Mac OS X 10_15_7) AppleWebKit/537.36 (KHTML, like Gecko) Chrome/106.0.0.0 Safari/537.36" version="22.1.21" etag="g5avLcxaENjr7lx30haB" type="github">
  <diagram name="第 1 页" id="SnYSTRagCMbv21I4NhcK">
    <mxGraphModel>
      <root>
        <mxCell id="0" />
        <mxCell id="1" parent="0" />
      </root>
    </mxGraphModel>
  </diagram>
</mxfile>
